#!OML:ASF F:\VICON\USERDATA\INSTALL\rory3\rory3.ASF
:FULLY-SPECIFIED
:DEGREES
199
root 0.109892 17.6818 8.36333 -0.869065 -3.41727 -5.67548
lowerback 9.45899 2.25726 5.7791
upperback 0.162676 3.72817 1.87565
thorax -4.89547 1.7238 -1.77998
lowerneck -16.1149 -3.74558 -0.91422
upperneck 20.9888 -5.19521 0.925521
head 9.32007 -2.3909 -0.188747
rclavicle -2.30031e-014 -2.04748e-014
rhumerus -19.6781 -9.35013 -82.1879
rradius 34.0269
rwrist -1.29407
rhand -20.0337 25.6355
rfingers 7.12502
rthumb 6.30732 -4.25057
lclavicle -2.30031e-014 -2.04748e-014
lhumerus -38.5205 2.24317 85.0369
lradius 23.6571
lwrist 4.11705
lhand -29.6466 20.218
lfingers 7.12502
lthumb -2.97617 50.177
rfemur 11.2643 6.62372 32.2028
rtibia 32.4863
rfoot -15.9918 -5.54798
rtoes -10.9543
lfemur -26.6488 -3.14581 -14.5995
ltibia 23.5363
lfoot -3.45619 -3.59718
ltoes -5.70737
200
root 0.132269 17.7119 8.57798 -1.03834 -3.12863 -5.5153
lowerback 9.58283 2.14117 5.58538
upperback 0.0153144 3.57122 1.8895
thorax -5.1436 1.64163 -1.64822
lowerneck -15.7265 -3.72828 -0.879623
upperneck 21.0211 -5.17183 0.874405
head 9.25684 -2.38606 -0.201142
rclavicle -3.29237e-014 -7.7526e-015
rhumerus -20.2134 -9.78788 -81.9978
rradius 33.5516
rwrist -1.0372
rhand -19.7367 25.7549
rfingers 7.12502
rthumb 6.59403 -4.12241
lclavicle -3.29237e-014 -7.7526e-015
lhumerus -38.533 3.22235 84.4812
lradius 23.2217
lwrist 2.85599
lhand -27.9692 22.6325
lfingers 7.12502
lthumb -1.35615 52.6079
rfemur 11.0781 6.08062 31.7964
rtibia 33.997
rfoot -14.4489 -4.66968
rtoes -11.3587
lfemur -26.3966 -3.53677 -14.8545
ltibia 24.1817
lfoot -2.61203 -4.45556
ltoes -6.83149
201
root 0.149588 17.7298 8.80706 -1.33773 -2.81446 -5.18324
lowerback 9.56707 2.05846 5.23219
upperback 0.0297531 3.41848 1.8485
thorax -5.14677 1.57525 -1.4739
lowerneck -15.6491 -3.73524 -1.04976
upperneck 21.135 -5.17593 1.02007
head 9.29153 -2.38472 -0.123791
rclavicle -1.83689e-014 -1.66979e-014
rhumerus -20.5783 -10.5519 -81.7964
rradius 32.9242
rwrist -0.778537
rhand -19.5391 25.4443
rfingers 7.12502
rthumb 6.78473 -4.42701
lclavicle -1.83689e-014 -1.66979e-014
lhumerus -38.4509 4.07603 83.9307
lradius 22.6301
lwrist 1.66507
lhand -26.6874 23.2961
lfingers 7.12502
lthumb -0.118194 53.2758
rfemur 10.8916 5.57258 31.2478
rtibia 35.8397
rfoot -12.7273 -3.9541
rtoes -10.9941
lfemur -25.9699 -3.90728 -15.3051
ltibia 24.9292
lfoot -1.5206 -5.43295
ltoes -3.23101
202
root 0.170515 17.734 9.03414 -1.62048 -2.6011 -4.6978
lowerback 9.66185 2.02838 4.76603
upperback -0.00198549 3.33054 1.7669
thorax -5.25934 1.53965 -1.29312
lowerneck -15.7106 -3.75986 -1.21861
upperneck 21.3301 -5.1738 1.03083
head 9.37611 -2.39358 -0.0956495
rclavicle 4.59814e-014 1.33186e-014
rhumerus -21.0809 -11.3584 -81.5194
rradius 32.3422
rwrist -0.225168
rhand -20.1435 24.4201
rfingers 7.12502
rthumb 6.20125 -5.46911
lclavicle 4.59814e-014 1.33186e-014
lhumerus -38.5243 4.40187 83.7332
lradius 22.0788
lwrist 1.39095
lhand -26.508 23.6407
lfingers 7.12502
lthumb 0.0551183 53.6204
rfemur 10.5529 5.0449 30.4187
rtibia 37.7829
rfoot -10.2493 -3.06668
rtoes -9.85574
lfemur -25.4267 -3.95963 -16.0677
ltibia 25.6708
lfoot -0.904389 -5.98516
ltoes -0.924017
203
root 0.198193 17.7258 9.25608 -1.67364 -2.39867 -4.3399
lowerback 9.55119 2.04045 4.53981
upperback -0.116186 3.31404 1.66059
thorax -5.32398 1.53335 -1.27356
lowerneck -15.7318 -3.8449 -1.33889
upperneck 21.5607 -5.28016 1.08431
head 9.4672 -2.44426 -0.0742584
rclavicle 1.65426e-014 -1.86858e-014
rhumerus -21.5844 -12.2444 -81.222
rradius 31.7083
rwrist 0.127335
rhand -20.7533 23.4736
rfingers 7.12502
rthumb 5.61253 -6.43204
lclavicle 1.65426e-014 -1.86858e-014
lhumerus -38.6742 4.5146 83.5474
lradius 21.8355
lwrist 1.15654
lhand -25.9151 24.0967
lfingers 7.12502
lthumb 0.627765 54.0755
rfemur 9.76045 4.49232 29.6133
rtibia 39.9068
rfoot -7.29853 -2.11167
rtoes -7.78752
lfemur -25.177 -3.64202 -16.8045
ltibia 26.6245
lfoot -1.15962 -5.92398
ltoes -0.916765
204
root 0.229688 17.7261 9.48356 -1.68619 -2.28178 -4.20609
lowerback 9.19108 2.06975 4.63248
upperback -0.124261 3.33581 1.56083
thorax -5.11721 1.54581 -1.41587
lowerneck -15.8243 -3.90943 -1.26975
upperneck 21.7691 -5.39762 1.1018
head 9.55754 -2.48809 -0.0991344
rclavicle -5.73991e-015 1.25234e-014
rhumerus -22.031 -13.4576 -80.9355
rradius 31.2315
rwrist 0.419672
rhand -20.752 22.9273
rfingers 7.12502
rthumb 5.61384 -6.97837
lclavicle -5.73991e-015 1.25234e-014
lhumerus -38.6373 4.85181 83.1604
lradius 21.506
lwrist 0.384046
lhand -25.446 23.8155
lfingers 7.12502
lthumb 1.0808 53.7925
rfemur 8.82235 3.91507 28.9954
rtibia 42.0736
rfoot -4.58951 -1.21299
rtoes -7.5502
lfemur -24.975 -3.24853 -17.3165
ltibia 27.7215
lfoot -1.66353 -5.42809
ltoes -2.94651
205
root 0.264729 17.7362 9.70824 -1.78747 -2.16817 -3.96742
lowerback 9.09724 2.03708 4.56136
upperback -0.185776 3.27804 1.49045
thorax -5.13177 1.51729 -1.43948
lowerneck -15.6914 -3.87708 -1.17011
upperneck 21.7327 -5.37169 1.07114
head 9.51568 -2.47303 -0.119378
rclavicle -1.61885e-014 1.05356e-014
rhumerus -22.5929 -14.2389 -80.615
rradius 30.8056
rwrist 0.592474
rhand -20.2795 22.9626
rfingers 7.12502
rthumb 6.07002 -6.93046
lclavicle -1.61885e-014 1.05356e-014
lhumerus -38.6922 5.5649 82.6573
lradius 21.1744
lwrist -0.333212
lhand -25.0892 23.1885
lfingers 7.12502
lthumb 1.42545 53.1635
rfemur 7.89096 3.29237 28.2093
rtibia 44.2401
rfoot -2.25092 -0.226939
rtoes -7.15477
lfemur -24.631 -2.93214 -17.9505
ltibia 28.7812
lfoot -2.25808 -5.56854
ltoes -2.54332
206
root 0.297505 17.7494 9.92024 -2.0044 -2.13348 -3.89424
lowerback 9.33489 2.00694 4.67844
upperback -0.248008 3.26478 1.43298
thorax -5.32224 1.50098 -1.57493
lowerneck -15.7024 -3.86055 -1.22371
upperneck 21.7405 -5.38302 1.26683
head 9.52852 -2.46031 -0.0451643
rclavicle 1.57537e-014 3.97569e-015
rhumerus -23.0798 -14.9692 -80.371
rradius 30.2858
rwrist 0.957928
rhand -19.7067 23.2367
rfingers 7.12502
rthumb 6.62293 -6.6397
lclavicle 1.57537e-014 3.97569e-015
lhumerus -38.8684 5.93139 82.2822
lradius 21.2848
lwrist -0.708148
lhand -24.4419 24.2169
lfingers 7.12502
lthumb 2.05059 54.1868
rfemur 6.96671 2.78026 27.6586
rtibia 46.44
rfoot 0.458449 0.678687
rtoes -5.66698
lfemur -24.0356 -2.65959 -18.3349
ltibia 29.6384
lfoot -3.23709 -6.42296
ltoes 0.600344
207
root 0.32667 17.7665 10.1205 -2.11998 -2.1616 -4.05362
lowerback 9.51705 1.97443 4.90099
upperback -0.29178 3.26542 1.53523
thorax -5.46545 1.49188 -1.60152
lowerneck -15.9393 -3.84496 -1.45913
upperneck 21.9006 -5.35214 1.47114
head 9.64222 -2.43799 0.061178
rclavicle -2.9768e-014 1.64991e-014
rhumerus -23.5618 -15.6293 -80.0336
rradius 29.9638
rwrist 1.39444
rhand -19.4389 22.9638
rfingers 7.12502
rthumb 6.88146 -6.90431
lclavicle -2.9768e-014 1.64991e-014
lhumerus -38.983 6.25772 82.1639
lradius 21.5232
lwrist -0.748569
lhand -22.86 27.0821
lfingers 7.12502
lthumb 3.57825 57.0318
rfemur 5.79859 2.44869 27.4356
rtibia 48.7938
rfoot 3.89428 1.27771
rtoes -3.40681
lfemur -23.5008 -2.39455 -18.4237
ltibia 30.2637
lfoot -3.96065 -6.82461
ltoes 1.65155
208
root 0.352763 17.7827 10.3217 -2.18496 -2.27483 -4.00623
lowerback 9.48413 1.97451 4.86448
upperback -0.256009 3.26079 1.59174
thorax -5.41478 1.49326 -1.51936
lowerneck -15.9993 -3.78716 -1.46615
upperneck 21.7964 -5.25176 1.41443
head 9.61351 -2.39912 0.0557255
rclavicle -2.1419e-014 9.74045e-015
rhumerus -24.004 -16.2385 -79.7899
rradius 29.833
rwrist 1.53689
rhand -19.4373 22.4627
rfingers 7.12502
rthumb 6.88302 -7.40543
lclavicle -2.1419e-014 9.74045e-015
lhumerus -38.8591 6.57831 82.1114
lradius 21.4837
lwrist -0.197277
lhand -22.215 28.4931
lfingers 7.12502
lthumb 4.20115 58.4314
rfemur 4.46626 2.32364 27.0465
rtibia 51.3438
rfoot 7.66101 1.37742
rtoes 1.45162
lfemur -22.9275 -2.2437 -18.6964
ltibia 30.6434
lfoot -4.49167 -6.39126
ltoes -0.37035
209
root 0.379226 17.798 10.5265 -2.38894 -2.6542 -3.6784
lowerback 9.57036 2.03059 4.56011
upperback -0.140433 3.29943 1.5537
thorax -5.35343 1.52313 -1.39571
lowerneck -16.1239 -3.73482 -1.43669
upperneck 21.6282 -5.17003 1.37181
head 9.57409 -2.36442 0.0460081
rclavicle -2.37113e-014 -1.55052e-014
rhumerus -24.2469 -16.5802 -79.6246
rradius 29.4821
rwrist 1.51752
rhand -18.9166 21.9873
rfingers 7.12502
rthumb 7.38566 -7.86376
lclavicle -2.37113e-014 -1.55052e-014
lhumerus -38.7555 6.61693 82.1836
lradius 21.4193
lwrist 0.819479
lhand -24.3339 26.625
lfingers 7.12502
lthumb 2.15487 56.5938
rfemur 3.15278 2.41141 26.3632
rtibia 54.0199
rfoot 11.0574 1.31342
rtoes 10.7938
lfemur -22.0545 -2.20423 -19.2075
ltibia 30.9024
lfoot -5.61717 -5.72131
ltoes -1.72444
210
root 0.406343 17.8108 10.726 -2.51656 -2.92064 -3.27031
lowerback 9.76861 2.09758 4.26068
upperback -0.188236 3.36261 1.44856
thorax -5.52215 1.55617 -1.35712
lowerneck -16.229 -3.71348 -1.42033
upperneck 21.6623 -5.12719 1.30039
head 9.60236 -2.35018 0.0218447
rclavicle 9.50439e-015 1.55052e-014
rhumerus -24.6405 -17.2723 -79.2768
rradius 28.8473
rwrist 1.81718
rhand -18.4124 22.2823
rfingers 7.12502
rthumb 7.8723 -7.55114
lclavicle 9.50439e-015 1.55052e-014
lhumerus -38.9544 6.31904 82.2912
lradius 21.7055
lwrist 1.80273
lhand -25.9402 23.4899
lfingers 7.12502
lthumb 0.603484 53.4688
rfemur 1.66026 2.35649 25.5689
rtibia 56.7726
rfoot 13.9295 1.36091
rtoes 15.9436
lfemur -21.2844 -2.17665 -19.8513
ltibia 31.0251
lfoot -5.74047 -5.40203
ltoes -1.96274
211
root 0.430422 17.8306 10.9185 -2.6847 -3.12773 -2.68737
lowerback 10.1174 2.17468 3.7296
upperback -0.239858 3.41522 1.29524
thorax -5.79093 1.58808 -1.24578
lowerneck -16.2588 -3.71524 -1.30662
upperneck 21.4997 -5.12978 1.19461
head 9.54427 -2.35575 -0.0325577
rclavicle -8.75274e-015 1.86858e-014
rhumerus -25.0186 -18.1744 -78.8924
rradius 28.2321
rwrist 2.46971
rhand -18.2917 22.6712
rfingers 7.12502
rthumb 7.98881 -7.15787
lclavicle -8.75274e-015 1.86858e-014
lhumerus -39.0414 5.6431 82.5755
lradius 22.1572
lwrist 2.70302
lhand -26.7737 22.3188
lfingers 7.12502
lthumb -0.201525 52.2985
rfemur 0.179236 2.24113 24.6115
rtibia 59.4603
rfoot 16.3563 1.22305
rtoes 18.3162
lfemur -20.237 -2.22305 -20.6217
ltibia 31.1027
lfoot -6.82048 -5.05681
ltoes 0.277939
212
root 0.449627 17.8384 11.1091 -2.78078 -3.45805 -2.18368
lowerback 10.2613 2.26582 3.22039
upperback -0.211846 3.47321 1.15911
thorax -5.86053 1.62835 -1.11827
lowerneck -16.4511 -3.66233 -1.18256
upperneck 21.4206 -5.06818 1.12386
head 9.54575 -2.32435 -0.0722725
rclavicle 2.25993e-014 1.0138e-014
rhumerus -25.1411 -18.8642 -78.6835
rradius 27.5114
rwrist 3.01627
rhand -18.3589 22.7974
rfingers 7.12502
rthumb 7.92392 -7.0341
lclavicle 2.25993e-014 1.0138e-014
lhumerus -38.863 5.34732 82.6658
lradius 22.4764
lwrist 3.07529
lhand -26.9917 23.0141
lfingers 7.12502
lthumb -0.412102 52.9935
rfemur -1.43399 2.27001 23.8179
rtibia 62.1049
rfoot 17.2723 0.330667
rtoes 17.8449
lfemur -19.359 -2.14834 -21.3057
ltibia 31.0901
lfoot -7.38544 -4.45325
ltoes 0.0294772
